<svg width="22" height="22" viewBox="0 0 22 22" fill="none" xmlns="http://www.w3.org/2000/svg">
<mask id="mask0_3_312" style="mask-type:alpha" maskUnits="userSpaceOnUse" x="0" y="0" width="22" height="22">
<rect width="22" height="22" fill="#D9D9D9"/>
</mask>
<g mask="url(#mask0_3_312)">
<path d="M10.3123 11.6875H5.729C5.53421 11.6875 5.37097 11.6215 5.23927 11.4897C5.10743 11.3578 5.0415 11.1945 5.0415 10.9997C5.0415 10.8048 5.10743 10.6415 5.23927 10.51C5.37097 10.3783 5.53421 10.3125 5.729 10.3125H10.3123V5.72913C10.3123 5.53433 10.3783 5.37109 10.5101 5.2394C10.642 5.10755 10.8053 5.04163 11.0001 5.04163C11.195 5.04163 11.3583 5.10755 11.4898 5.2394C11.6215 5.37109 11.6873 5.53433 11.6873 5.72913V10.3125H16.2707C16.4655 10.3125 16.6287 10.3784 16.7604 10.5102C16.8922 10.6421 16.9582 10.8054 16.9582 11.0002C16.9582 11.1951 16.8922 11.3584 16.7604 11.4899C16.6287 11.6216 16.4655 11.6875 16.2707 11.6875H11.6873V16.2708C11.6873 16.4656 11.6214 16.6288 11.4896 16.7605C11.3577 16.8924 11.1944 16.9583 10.9996 16.9583C10.8047 16.9583 10.6414 16.8924 10.5099 16.7605C10.3782 16.6288 10.3123 16.4656 10.3123 16.2708V11.6875Z" fill="white"/>
</g>
</svg>
