<svg width="12" height="12" viewBox="0 0 12 12" fill="none" xmlns="http://www.w3.org/2000/svg">
<mask id="mask0_4_483" style="mask-type:alpha" maskUnits="userSpaceOnUse" x="0" y="0" width="12" height="12">
<rect width="12" height="12" fill="#D9D9D9"/>
</mask>
<g mask="url(#mask0_4_483)">
<path d="M3.65387 10.25C3.40529 10.25 3.1925 10.1615 3.0155 9.98449C2.8385 9.80749 2.75 9.5947 2.75 9.34611V2.99999H2.625C2.51875 2.99999 2.42971 2.96403 2.35788 2.89211C2.28596 2.8202 2.25 2.73111 2.25 2.62486C2.25 2.51853 2.28596 2.42949 2.35788 2.35774C2.42971 2.28591 2.51875 2.24999 2.625 2.24999H4.5C4.5 2.12757 4.54313 2.02324 4.62938 1.93699C4.71554 1.85082 4.81983 1.80774 4.94225 1.80774H7.05775C7.18017 1.80774 7.28446 1.85082 7.37063 1.93699C7.45688 2.02324 7.5 2.12757 7.5 2.24999H9.375C9.48125 2.24999 9.57029 2.28595 9.64213 2.35786C9.71404 2.42978 9.75 2.51886 9.75 2.62511C9.75 2.73145 9.71404 2.82049 9.64213 2.89224C9.57029 2.96407 9.48125 2.99999 9.375 2.99999H9.25V9.34611C9.25 9.5947 9.1615 9.80749 8.9845 9.98449C8.8075 10.1615 8.59471 10.25 8.34613 10.25H3.65387ZM8.5 2.99999H3.5V9.34611C3.5 9.39103 3.51442 9.42791 3.54325 9.45674C3.57208 9.48557 3.60896 9.49999 3.65387 9.49999H8.34613C8.39104 9.49999 8.42792 9.48557 8.45675 9.45674C8.48558 9.42791 8.5 9.39103 8.5 9.34611V2.99999ZM5.07713 8.49999C5.18338 8.49999 5.27242 8.46407 5.34425 8.39224C5.416 8.32032 5.45187 8.23124 5.45187 8.12499V4.37499C5.45187 4.26874 5.41592 4.17966 5.344 4.10774C5.27217 4.03591 5.18308 3.99999 5.07675 3.99999C4.9705 3.99999 4.88146 4.03591 4.80962 4.10774C4.73787 4.17966 4.702 4.26874 4.702 4.37499V8.12499C4.702 8.23124 4.73792 8.32032 4.80975 8.39224C4.88167 8.46407 4.97079 8.49999 5.07713 8.49999ZM6.92325 8.49999C7.0295 8.49999 7.11854 8.46407 7.19037 8.39224C7.26212 8.32032 7.298 8.23124 7.298 8.12499V4.37499C7.298 4.26874 7.26208 4.17966 7.19025 4.10774C7.11833 4.03591 7.02921 3.99999 6.92288 3.99999C6.81663 3.99999 6.72758 4.03591 6.65575 4.10774C6.584 4.17966 6.54812 4.26874 6.54812 4.37499V8.12499C6.54812 8.23124 6.58408 8.32032 6.656 8.39224C6.72783 8.46407 6.81692 8.49999 6.92325 8.49999Z" fill="black" fill-opacity="0.5"/>
</g>
</svg>
