<svg width="12" height="12" viewBox="0 0 12 12" fill="none" xmlns="http://www.w3.org/2000/svg">
<mask id="mask0_4_480" style="mask-type:alpha" maskUnits="userSpaceOnUse" x="0" y="0" width="12" height="12">
<rect width="12" height="12" fill="#D9D9D9"/>
</mask>
<g mask="url(#mask0_4_480)">
<path d="M2.50049 9.50006H3.13124L8.24949 4.38181L7.61874 3.75106L2.50049 8.86931V9.50006ZM2.20249 10.2501C2.07441 10.2501 1.96707 10.2067 1.88049 10.1201C1.79382 10.0335 1.75049 9.92614 1.75049 9.79806V8.93181C1.75049 8.8099 1.7739 8.69369 1.82074 8.58319C1.86749 8.47269 1.93191 8.3764 2.01399 8.29431L8.34574 1.96544C8.42132 1.89677 8.50478 1.84373 8.59611 1.80631C8.68753 1.76881 8.78336 1.75006 8.88361 1.75006C8.98386 1.75006 9.08095 1.76785 9.17486 1.80344C9.26886 1.83902 9.35207 1.8956 9.42449 1.97319L10.0351 2.59144C10.1127 2.66385 10.168 2.74719 10.201 2.84144C10.234 2.93569 10.2505 3.02994 10.2505 3.12419C10.2505 3.22477 10.2333 3.32073 10.199 3.41206C10.1647 3.50348 10.11 3.58698 10.0351 3.66256L3.70624 9.98656C3.62416 10.0686 3.52786 10.1331 3.41736 10.1798C3.30686 10.2266 3.19066 10.2501 3.06874 10.2501H2.20249ZM7.92861 4.07194L7.61874 3.75106L8.24949 4.38181L7.92861 4.07194Z" fill="black" fill-opacity="0.5"/>
</g>
</svg>
